# xmcd
#
# Track frame offsets:
#	150
#	19207
#	33965
#	51402
#	69970
#	84405
#	99157
#	113730
#	131442
#	148735
#	162417
#	175515
#	190727
#	203462
#
# Disc length: 2878 seconds
#
# Revision: 1
# Processed by: cddbd v1.5.1PL0 Copyright (c) Steve Scherf et al.
# Submitted via: EasyCDDAExtractor 5.0.6
#
DISCID=ae0b3c0e
DTITLE=Jad and Jefferson - A Emoção da Música Sertaneja
DYEAR=2000
DGENRE=Sertanejo
TTITLE0=Boi Furacão
TTITLE1=Escolta de Vagalumes
TTITLE2=Vida Gostosa
TTITLE3=Minha Rainha
TTITLE4=Boate Azul
TTITLE5=Me Amor Fugiu de Mim
TTITLE6=Vou Chutar o Pau da Barraca
TTITLE7=Durma em Meus Braços
TTITLE8=Euppresmedia ( Doença de Gato )
TTITLE9=Hoje Eu Entro na Gandaia
TTITLE10=Ninho de Cobra ( Corta-Jaca )
TTITLE11=O Carro e a Faculdade
TTITLE12=Amor Perigoso
TTITLE13=Saco de Ouro
EXTD=
EXTT0=
EXTT1=
EXTT2=
EXTT3=
EXTT4=
EXTT5=
EXTT6=
EXTT7=
EXTT8=
EXTT9=
EXTT10=
EXTT11=
EXTT12=
EXTT13=
PLAYORDER=
